<svg xmlns="http://www.w3.org/2000/svg" viewBox="0 0 200 50"><path d="M37.5 10c-8.3 0-15 6.7-15 15s6.7 15 15 15 15-6.7 15-15-6.7-15-15-15zm0 27c-6.6 0-12-5.4-12-12s5.4-12 12-12 12 5.4 12 12-5.4 12-12 12z" fill="#00B4E1"/><path d="M37.5 16c-5 0-9 4-9 9s4 9 9 9 9-4 9-9-4-9-9-9zm0 15c-3.3 0-6-2.7-6-6s2.7-6 6-6 6 2.7 6 6-2.7 6-6 6z" fill="#00B4E1"/><path d="M85.5 20h-3v15h3c4.1 0 7.5-3.4 7.5-7.5S89.6 20 85.5 20zm0 12h-1V23h1c2.5 0 4.5 2 4.5 4.5s-2 4.5-4.5 4.5zM102.5 20c-4.1 0-7.5 3.4-7.5 7.5s3.4 7.5 7.5 7.5 7.5-3.4 7.5-7.5-3.4-7.5-7.5-7.5zm0 12c-2.5 0-4.5-2-4.5-4.5s2-4.5 4.5-4.5 4.5 2 4.5 4.5-2 4.5-4.5 4.5zM122.5 20c-4.1 0-7.5 3.4-7.5 7.5s3.4 7.5 7.5 7.5 7.5-3.4 7.5-7.5-3.4-7.5-7.5-7.5zm0 12c-2.5 0-4.5-2-4.5-4.5s2-4.5 4.5-4.5 4.5 2 4.5 4.5-2 4.5-4.5 4.5z" fill="#1D1D1B"/><path d="M145 20h-5v15h2v-6h3c2.2 0 4-1.8 4-4s-1.8-5-4-5zm0 7h-3v-5h3c1.1 0 2 .9 2 2s-.9 3-2 3zM157.5 20c-4.1 0-7.5 3.4-7.5 7.5s3.4 7.5 7.5 7.5 7.5-3.4 7.5-7.5-3.4-7.5-7.5-7.5zm0 12c-2.5 0-4.5-2-4.5-4.5s2-4.5 4.5-4.5 4.5 2 4.5 4.5-2 4.5-4.5 4.5z" fill="#1D1D1B"/></svg>