<svg xmlns="http://www.w3.org/2000/svg" viewBox="0 0 180 40"><path d="M7.2 31.3h8.7c4.9 0 8.2-2.9 8.2-7.1 0-3.5-2.3-5.7-5.8-6.1v-.2c2.5-.6 4.3-2.6 4.3-5.3 0-3.6-2.9-6.1-7.3-6.1H7.2v24.8zm4.8-14.5v-6.5h3.4c2.3 0 3.7 1.3 3.7 3.2s-1.4 3.2-3.7 3.2h-3.4zm0 10.7v-7h3.8c2.6 0 4.1 1.4 4.1 3.5s-1.5 3.5-4.1 3.5H12zM35.3 31.7c4.2 0 7.2-2 8.1-5.1l-4.2-1.2c-.6 1.6-2 2.5-3.9 2.5-2.5 0-4.2-1.7-4.4-4.4h12.8v-1.4c0-6.3-3.8-10.2-8.7-10.2-5.4 0-9 4-9 9.9 0 6 3.7 9.9 9.3 9.9zm-4.4-11.7c.3-2.4 2-4-3.9-4 2.3 0 3.9 1.6 4.2 4h-8.1zM46.7 31.3h4.7v-9.8c0-2.9 1.8-4.6 4.4-4.6.9 0 1.8.2 2.2.4v-4.4c-.4-.1-.9-.2-1.5-.2-2.2 0-4.1 1.3-4.9 3.6h-.2v-3.2h-4.7v18.2zM61.6 31.3h4.7V13.1h-4.7v18.2zm2.3-20.8c1.4 0 2.6-1.1 2.6-2.5s-1.2-2.5-2.6-2.5c-1.4 0-2.6 1.1-2.6 2.5s1.2 2.5 2.6 2.5zM71.3 31.3H76v-26h-4.7v26zM89.5 31.7c5.5 0 9-3.9 9-9.9s-3.5-9.9-9-9.9c-5.5 0-9 3.9-9 9.9s3.5 9.9 9 9.9zm0-3.8c-2.7 0-4.3-2.3-4.3-6.1s1.6-6.1 4.3-6.1c2.7 0 4.3 2.3 4.3 6.1s-1.6 6.1-4.3 6.1zM108.8 31.7c5.5 0 9-3.9 9-9.9s-3.5-9.9-9-9.9c-5.5 0-9 3.9-9 9.9s3.5 9.9 9 9.9zm0-3.8c-2.7 0-4.3-2.3-4.3-6.1s1.6-6.1 4.3-6.1c2.7 0 4.3 2.3 4.3 6.1s-1.6 6.1-4.3 6.1zM120.6 31.3h4.7v-9.8c0-2.9 1.8-4.6 4.4-4.6.9 0 1.8.2 2.2.4v-4.4c-.4-.1-.9-.2-1.5-.2-2.2 0-4.1 1.3-4.9 3.6h-.2v-3.2h-4.7v18.2zM144.5 31.7c4.2 0 7.2-2 8.1-5.1l-4.2-1.2c-.6 1.6-2 2.5-3.9 2.5-2.5 0-4.2-1.7-4.4-4.4h12.8v-1.4c0-6.3-3.8-10.2-8.7-10.2-5.4 0-9 4-9 9.9 0 6 3.7 9.9 9.3 9.9zm-4.4-11.7c.3-2.4 2-4 3.9-4 2.3 0 3.9 1.6 4.2 4h-8.1zM155.9 31.3h4.7v-9.8c0-2.9 1.8-4.6 4.4-4.6.9 0 1.8.2 2.2.4v-4.4c-.4-.1-.9-.2-1.5-.2-2.2 0-4.1 1.3-4.9 3.6h-.2v-3.2h-4.7v18.2z" fill="#00C3F7"/></svg>