<svg xmlns="http://www.w3.org/2000/svg" viewBox="0 0 124 33"><path fill="#293B80" d="M17.5 9.1c-.9-1.3-2.7-2-5-2H3.2c-.4 0-.8.3-.9.8L0 24.5c-.1.3.2.6.5.6h3.7c.4 0 .8-.3.9-.8l.8-4.7c.1-.4.5-.8.9-.8h2.2c4.5 0 7.1-2.2 7.8-6.5.3-1.9 0-3.4-.9-4.7zm-1.2 4.6c-.4 2.5-2.2 2.5-4.1 2.5h-1l.7-4.6c0-.3.3-.5.6-.5h.5c1.2 0 2.4 0 3 .7.4.4.5 1 .4 1.9z"/><path fill="#179BD7" d="M38.2 9.1c-.9-1.3-2.7-2-5-2h-9.3c-.4 0-.8.3-.9.8l-2.3 14.6c-.1.3.2.6.5.6h3.5c.3 0 .5-.2.6-.5l.8-5c.1-.4.5-.8.9-.8h2.2c4.5 0 7.1-2.2 7.8-6.5.3-1.9 0-3.4-.9-4.7zm-1.2 4.6c-.4 2.5-2.2 2.5-4.1 2.5h-1l.7-4.6c0-.3.3-.5.6-.5h.5c1.2 0 2.4 0 3 .7.4.4.5 1 .4 1.9z"/><path fill="#222D65" d="M54.7 13.7h-3.3c-.3 0-.5.2-.6.5l-.1.9-.2-.3c-.7-1-2.3-1.4-3.9-1.4-3.6 0-6.7 2.7-7.3 6.6-.3 1.9.1 3.8 1.2 5 1 1.2 2.4 1.7 4.1 1.7 2.9 0 4.5-1.9 4.5-1.9l-.1.9c-.1.3.2.6.5.6h3c.4 0 .8-.3.9-.8l1.8-11.2c0-.3-.2-.6-.5-.6zm-4.6 6.4c-.3 1.9-1.8 3.1-3.7 3.1-1 0-1.7-.3-2.2-.9-.5-.6-.7-1.4-.5-2.3.3-1.9 1.8-3.2 3.7-3.2.9 0 1.7.3 2.2.9.5.6.7 1.4.5 2.3z"/><path fill="#253B80" d="M72.1 13.7h-3.3c-.3 0-.6.2-.8.4l-4.5 6.7-1.9-6.4c-.1-.4-.5-.7-.9-.7h-3.2c-.3 0-.5.3-.4.6l3.6 10.6-3.4 4.8c-.3.4 0 .9.5.9h3.3c.3 0 .6-.2.8-.4l10.9-15.8c.3-.4 0-.9-.5-.9z"/><path fill="#179BD7" d="M83 9.1c-.9-1.3-2.7-2-5-2h-9.3c-.4 0-.8.3-.9.8l-2.3 14.6c-.1.3.2.6.5.6h3.5c.4 0 .7-.3.7-.6l.8-5c.1-.4.5-.8.9-.8h2.2c4.5 0 7.1-2.2 7.8-6.5.3-1.9 0-3.4-.9-4.7zm-1.2 4.6c-.4 2.5-2.2 2.5-4.1 2.5h-1l.7-4.6c0-.3.3-.5.6-.5h.5c1.2 0 2.4 0 3 .7.4.4.5 1 .4 1.9z"/><path fill="#222D65" d="M99.4 13.7h-3.3c-.3 0-.5.2-.6.5l-.1.9-.2-.3c-.7-1-2.3-1.4-3.9-1.4-3.6 0-6.7 2.7-7.3 6.6-.3 1.9.1 3.8 1.2 5 1 1.2 2.4 1.7 4.1 1.7 2.9 0 4.5-1.9 4.5-1.9l-.1.9c-.1.3.2.6.5.6h3c.4 0 .8-.3.9-.8l1.8-11.2c0-.3-.2-.6-.5-.6zm-4.6 6.4c-.3 1.9-1.8 3.1-3.7 3.1-1 0-1.7-.3-2.2-.9-.5-.6-.7-1.4-.5-2.3.3-1.9 1.8-3.2 3.7-3.2.9 0 1.7.3 2.2.9.5.6.7 1.4.5 2.3z"/><path fill="#253B80" d="M103.3 7.2l-2.8 17.9c-.1.3.2.6.5.6h2.8c.4 0 .8-.3.9-.8l2.8-17.5c.1-.3-.2-.6-.5-.6h-3.2c-.2 0-.5.2-.5.5z"/></svg>