<svg xmlns="http://www.w3.org/2000/svg" viewBox="0 0 160 40"><path d="M157.2 23.7c0 8.2-6.4 14.8-14.3 14.8-7.9 0-14.3-6.6-14.3-14.8 0-8.2 6.4-14.8 14.3-14.8 7.9 0 14.3 6.6 14.3 14.8zm-14.3-9.8c-5.2 0-9.4 4.4-9.4 9.8 0 5.4 4.2 9.8 9.4 9.8s9.4-4.4 9.4-9.8c0-5.4-4.2-9.8-9.4-9.8z" fill="#072654"/><path d="M128.6 9.6h-8.9v28.3h4.9V27.7h4c6.1 0 11-5.1 11-11.4 0-3.7-3-6.7-6.7-6.7h-4.3zm0 13.2h-4V14.5h4c2.1 0 3.8 1.8 3.8 4.1 0 2.3-1.7 4.2-3.8 4.2z" fill="#072654"/><path d="M82.1 9.6h-8.9v28.3h4.9V27.7h4c6.1 0 11-5.1 11-11.4 0-3.7-3-6.7-6.7-6.7h-4.3zm0 13.2h-4V14.5h4c2.1 0 3.8 1.8 3.8 4.1 0 2.3-1.7 4.2-3.8 4.2z" fill="#072654"/><path d="M105.3 9.6h-4.9v28.3h4.9V9.6z" fill="#072654"/><path d="M51.3 9.6l-7.9 28.3h5.2l1.5-5.4h8.9l1.5 5.4h5.2L57.8 9.6h-6.5zm-.1 17.9l3.3-11.9 3.3 11.9h-6.6z" fill="#072654"/><path d="M25.6 1.6L8.7 37.9h8l3.3-7.1h16.5l3.3 7.1h8L30.9 1.6h-5.3zm2.6 22.3l5.9-12.7 5.9 12.7H28.2z" fill="#3395FF"/></svg>