<svg xmlns="http://www.w3.org/2000/svg" viewBox="0 0 200 50"><path d="M20 10c-5.5 0-10 4.5-10 10s4.5 10 10 10 10-4.5 10-10-4.5-10-10-10zm0 18c-4.4 0-8-3.6-8-8s3.6-8 8-8 8 3.6 8 8-3.6 8-8 8z" fill="#00B4E1"/><path d="M50 20h-3v15h3c4.1 0 7.5-3.4 7.5-7.5S54.1 20 50 20zm0 12h-1V23h1c2.5 0 4.5 2 4.5 4.5S52.5 32 50 32zM67 20c-4.1 0-7.5 3.4-7.5 7.5S62.9 35 67 35s7.5-3.4 7.5-7.5S71.1 20 67 20zm0 12c-2.5 0-4.5-2-4.5-4.5s2-4.5 4.5-4.5 4.5 2 4.5 4.5-2 4.5-4.5 4.5zM87 20c-4.1 0-7.5 3.4-7.5 7.5S82.9 35 87 35s7.5-3.4 7.5-7.5S91.1 20 87 20zm0 12c-2.5 0-4.5-2-4.5-4.5s2-4.5 4.5-4.5 4.5 2 4.5 4.5-2 4.5-4.5 4.5z" fill="#1D1D1B"/><path d="M109.5 20h-5v15h2v-6h3c2.2 0 4-1.8 4-4s-1.8-5-4-5zm0 7h-3v-5h3c1.1 0 2 .9 2 2s-.9 3-2 3zM122 20c-4.1 0-7.5 3.4-7.5 7.5s3.4 7.5 7.5 7.5 7.5-3.4 7.5-7.5-3.4-7.5-7.5-7.5zm0 12c-2.5 0-4.5-2-4.5-4.5s2-4.5 4.5-4.5 4.5 2 4.5 4.5-2 4.5-4.5 4.5z" fill="#1D1D1B"/></svg>